<svg width="75" height="74" viewBox="0 0 75 74" fill="none" xmlns="http://www.w3.org/2000/svg">
<path d="M68.0928 39.6016H66.3054L61.5617 29.7512C61.1241 28.8505 60.4427 28.0907 59.5947 27.5581C58.7468 27.0254 57.7665 26.7414 56.7651 26.7383H47.9487V17.8406C47.9487 15.8322 46.2485 14.1641 44.2402 14.1641H5.62998C4.6608 14.1729 3.73435 14.5642 3.05224 15.2528C2.37013 15.9413 1.98756 16.8714 1.98779 17.8406V53.1207C1.98779 53.5997 2.37615 54.0545 2.85498 54.0545H5.99781C6.19292 55.6402 6.96117 57.0997 8.15783 58.1581C9.35448 59.2166 10.8969 59.8008 12.4945 59.8008C14.0921 59.8008 15.6345 59.2166 16.8312 58.1581C18.0278 57.0997 18.7961 55.6402 18.9912 54.0545H54.2182C54.4133 55.6402 55.1816 57.0997 56.3782 58.1581C57.5749 59.2166 59.1173 59.8008 60.7149 59.8008C62.3125 59.8008 63.8549 59.2166 65.0516 58.1581C66.2482 57.0997 67.0165 55.6402 67.2116 54.0545H72.23C72.7088 54.0545 73.0972 53.5997 73.0972 53.1207V44.5519C73.0954 43.8978 72.9643 43.2504 72.7115 42.6471C72.4587 42.0438 72.0891 41.4964 71.6241 41.0364C71.159 40.5763 70.6077 40.2128 70.0016 39.9665C69.3956 39.7203 68.7469 39.5963 68.0928 39.6016ZM12.4952 58.0673C11.5433 58.0673 10.6128 57.785 9.82132 57.2562C9.02984 56.7273 8.41296 55.9757 8.04868 55.0962C7.68441 54.2168 7.5891 53.2491 7.7748 52.3155C7.96051 51.3819 8.41889 50.5243 9.09199 49.8512C9.76508 49.1781 10.6227 48.7197 11.5563 48.534C12.4899 48.3483 13.4576 48.4436 14.337 48.8079C15.2165 49.1722 15.9681 49.789 16.497 50.5805C17.0258 51.372 17.3081 52.3025 17.3081 53.2544C17.3066 54.5304 16.7991 55.7537 15.8968 56.656C14.9945 57.5583 13.7712 58.0658 12.4952 58.0673ZM46.2144 52.3203H18.9743C18.7488 50.7626 17.9698 49.3382 16.7798 48.308C15.5898 47.2778 14.0685 46.7107 12.4945 46.7107C10.9205 46.7107 9.39921 47.2778 8.20921 48.308C7.0192 49.3382 6.24015 50.7626 6.01472 52.3203H3.72217V41.3359H46.2144V52.3203ZM46.2144 27.6055V39.6016H3.72217V17.8406C3.72142 17.3312 3.92109 16.842 4.27807 16.4786C4.63504 16.1152 5.12064 15.9068 5.62998 15.8984H44.2402C44.7565 15.9042 45.2505 16.1097 45.6186 16.4718C45.9866 16.8339 46.2002 17.3245 46.2144 17.8406V27.6055ZM51.562 28.4727H56.7651C57.44 28.4742 58.1009 28.6651 58.6726 29.0237C59.2443 29.3823 59.7039 29.8941 59.999 30.501L62.6431 35.9883H51.562V28.4727ZM47.9487 28.4727H49.8276V36.8068C49.8359 37.0464 49.9345 37.274 50.1036 37.4439C50.2728 37.6138 50.5 37.7134 50.7396 37.7227H63.4783L64.3805 39.6016H47.9487V28.4727ZM60.715 58.0673C59.7631 58.0673 58.8326 57.785 58.0411 57.2562C57.2497 56.7273 56.6328 55.9757 56.2685 55.0962C55.9042 54.2168 55.8089 53.2491 55.9946 52.3155C56.1803 51.3819 56.6387 50.5243 57.3118 49.8512C57.9849 49.1781 58.8425 48.7197 59.7761 48.534C60.7097 48.3483 61.6774 48.4436 62.5568 48.8079C63.4363 49.1722 64.188 49.789 64.7168 50.5805C65.2457 51.372 65.5279 52.3025 65.5279 53.2544C65.5264 54.5304 65.0189 55.7537 64.1166 56.656C63.2143 57.5583 61.991 58.0658 60.715 58.0673ZM71.3628 52.3203H67.1948C66.9694 50.7626 66.1903 49.3382 65.0003 48.308C63.8103 47.2778 62.289 46.7107 60.715 46.7107C59.1411 46.7107 57.6197 47.2778 56.4297 48.308C55.2397 49.3382 54.4607 50.7626 54.2353 52.3203H47.9487V41.3359H68.0928C68.5727 41.3304 69.0479 41.4312 69.4842 41.6311C69.9205 41.831 70.3071 42.1251 70.6163 42.4922H68.001C67.89 42.4909 67.7799 42.5122 67.6774 42.5547C67.5749 42.5972 67.482 42.6601 67.4045 42.7395C67.3269 42.8189 67.2663 42.9132 67.2262 43.0167C67.1862 43.1203 67.1675 43.2308 67.1714 43.3417V46.8683C67.168 46.9781 67.1871 47.0873 67.2277 47.1894C67.2682 47.2914 67.3292 47.3841 67.407 47.4616C67.4847 47.5391 67.5776 47.5999 67.6797 47.6401C67.7819 47.6803 67.8913 47.6991 68.001 47.6953H71.3628V52.3203ZM71.3628 45.9609H68.9058V44.2266H71.3447C71.3566 44.3711 71.3628 44.4361 71.3628 44.5519V45.9609Z" fill="#F1D231"/>
<path d="M34.4652 32.5836C34.0889 30.5139 33.0669 28.6166 31.5457 27.1636C30.0244 25.7107 28.0822 24.7768 25.9974 24.4959C26.5143 24.1969 26.9182 23.7358 27.1463 23.184C27.3745 22.6322 27.4143 22.0205 27.2595 21.4437C27.1047 20.867 26.764 20.3575 26.2902 19.994C25.8164 19.6306 25.236 19.4337 24.6388 19.4337C24.0417 19.4337 23.4612 19.6306 22.9874 19.994C22.5136 20.3575 22.1729 20.867 22.0181 21.4437C21.8634 22.0205 21.9031 22.6322 22.1313 23.184C22.3595 23.7358 22.7633 24.1969 23.2802 24.4959C21.1955 24.7768 19.2532 25.7107 17.7319 27.1636C16.2107 28.6165 15.1886 30.5139 14.8123 32.5836C14.3494 32.6511 13.9291 32.8908 13.6354 33.2549C13.3416 33.6189 13.1961 34.0804 13.2279 34.5471C13.2598 35.0138 13.4666 35.4513 13.807 35.7721C14.1475 36.0929 14.5965 36.2733 15.0642 36.2774H34.2129C34.6807 36.2734 35.1297 36.093 35.4702 35.7723C35.8108 35.4515 36.0177 35.014 36.0495 34.5473C36.0814 34.0806 35.936 33.6191 35.6422 33.255C35.3485 32.8909 34.9281 32.6511 34.4652 32.5836ZM24.6385 21.1718C24.8322 21.1718 25.0216 21.2292 25.1826 21.3368C25.3437 21.4444 25.4692 21.5973 25.5433 21.7762C25.6175 21.9552 25.6369 22.1521 25.5991 22.342C25.5613 22.532 25.468 22.7065 25.3311 22.8434C25.1941 22.9804 25.0196 23.0736 24.8297 23.1114C24.6397 23.1492 24.4428 23.1298 24.2639 23.0557C24.085 22.9815 23.932 22.856 23.8245 22.6949C23.7169 22.5339 23.6595 22.3446 23.6595 22.1509C23.6598 21.8913 23.763 21.6425 23.9466 21.4589C24.1301 21.2754 24.379 21.1721 24.6385 21.1718ZM24.6385 26.0935C28.5497 26.0935 31.8554 28.9063 32.692 32.5196H16.5853C17.4217 28.9063 20.7274 26.0935 24.6385 26.0935ZM34.2129 34.543H15.0642C15.005 34.543 14.9568 34.4576 14.9568 34.3985C14.9568 34.3393 15.005 34.2539 15.0642 34.2539H34.2129C34.2721 34.2539 34.3203 34.3392 34.3203 34.3985C34.3203 34.4577 34.2721 34.543 34.2129 34.543Z" fill="#F1D231"/>
<path d="M6.32373 17.7012C6.20985 17.7012 6.09708 17.7236 5.99187 17.7672C5.88666 17.8108 5.79106 17.8746 5.71054 17.9552C5.63001 18.0357 5.56613 18.1313 5.52255 18.2365C5.47897 18.3417 5.45654 18.4545 5.45654 18.5684V19.266C5.45654 19.496 5.54791 19.7166 5.71054 19.8792C5.87317 20.0418 6.09374 20.1332 6.32373 20.1332C6.55372 20.1332 6.7743 20.0418 6.93693 19.8792C7.09955 19.7166 7.19092 19.496 7.19092 19.266V18.5688C7.19098 18.4549 7.16859 18.3421 7.12503 18.2368C7.08148 18.1315 7.01761 18.0359 6.93708 17.9553C6.85655 17.8747 6.76093 17.8108 6.65569 17.7672C6.55045 17.7236 6.43765 17.7012 6.32373 17.7012Z" fill="#F1D231"/>
<path d="M6.32373 21.7318C6.09374 21.7318 5.87317 21.8231 5.71054 21.9857C5.54791 22.1484 5.45654 22.3689 5.45654 22.5989V32.0959C5.45654 32.3259 5.54791 32.5465 5.71054 32.7091C5.87317 32.8718 6.09374 32.9631 6.32373 32.9631C6.55372 32.9631 6.7743 32.8718 6.93692 32.7091C7.09955 32.5465 7.19092 32.3259 7.19092 32.0959V22.5989C7.19092 22.3689 7.09955 22.1484 6.93692 21.9857C6.7743 21.8231 6.55372 21.7318 6.32373 21.7318Z" fill="#F1D231"/>
<path d="M12.4953 49.9583C11.8436 49.9584 11.2065 50.1518 10.6647 50.514C10.1229 50.8761 9.70062 51.3908 9.45132 51.993C9.20201 52.5952 9.13686 53.2577 9.26409 53.8969C9.39132 54.5361 9.70523 55.1232 10.1661 55.5839C10.627 56.0447 11.2142 56.3585 11.8534 56.4856C12.4926 56.6127 13.1551 56.5474 13.7572 56.298C14.3593 56.0485 14.8739 55.6262 15.236 55.0843C15.5981 54.5424 15.7913 53.9053 15.7913 53.2536C15.7902 52.3798 15.4425 51.5422 14.8246 50.9244C14.2067 50.3067 13.369 49.9592 12.4953 49.9583ZM12.4953 54.8158C12.1866 54.8158 11.8848 54.7243 11.6281 54.5528C11.3715 54.3813 11.1714 54.1375 11.0532 53.8524C10.9351 53.5672 10.9041 53.2534 10.9643 52.9506C11.0244 52.6478 11.173 52.3697 11.3913 52.1514C11.6095 51.933 11.8876 51.7843 12.1903 51.724C12.4931 51.6637 12.8069 51.6945 13.0921 51.8125C13.3774 51.9306 13.6212 52.1305 13.7928 52.3871C13.9644 52.6437 14.0561 52.9454 14.0562 53.2541C14.0558 53.6681 13.8912 54.0649 13.5986 54.3577C13.306 54.6504 12.9092 54.8152 12.4953 54.8158Z" fill="#F1D231"/>
<path d="M60.715 49.9583C60.0633 49.9584 59.4262 50.1518 58.8844 50.514C58.3426 50.8761 57.9203 51.3908 57.671 51.993C57.4217 52.5952 57.3566 53.2577 57.4838 53.8969C57.6111 54.5361 57.925 55.1232 58.3858 55.5839C58.8467 56.0447 59.4339 56.3585 60.0731 56.4856C60.7123 56.6127 61.3749 56.5474 61.9769 56.298C62.579 56.0485 63.0937 55.6262 63.4557 55.0843C63.8178 54.5424 64.011 53.9053 64.011 53.2536C64.0099 52.3798 63.6622 51.5422 63.0443 50.9244C62.4264 50.3067 61.5887 49.9592 60.715 49.9583ZM60.715 54.8158C60.4063 54.8156 60.1046 54.724 59.8481 54.5524C59.5915 54.3809 59.3915 54.1371 59.2735 53.8519C59.1554 53.5667 59.1246 53.2529 59.1848 52.9502C59.2451 52.6474 59.3937 52.3694 59.612 52.1511C59.8302 51.9329 60.1083 51.7842 60.411 51.724C60.7137 51.6637 61.0275 51.6946 61.3127 51.8126C61.5979 51.9307 61.8417 52.1306 62.0133 52.3872C62.1849 52.6438 62.2765 52.9455 62.2767 53.2541C62.2762 53.6682 62.1115 54.0651 61.8187 54.3578C61.5259 54.6506 61.129 54.8153 60.715 54.8158Z" fill="#F1D231"/>
</svg>
