<svg width="75" height="75" viewBox="0 0 75 75" fill="none" xmlns="http://www.w3.org/2000/svg">
<path d="M67.894 3.53784H7.19092C4.32197 3.53784 1.98779 5.91683 1.98779 8.78592V54.7148C1.98986 56.0929 2.53912 57.4138 3.51482 58.3871C4.49051 59.3604 5.81278 59.9064 7.19092 59.905H36.6753V70.0222H26.4425C26.2125 70.0222 25.9919 70.1136 25.8293 70.2762C25.6667 70.4388 25.5753 70.6594 25.5753 70.8894C25.5753 71.1194 25.6667 71.34 25.8293 71.5026C25.9919 71.6652 26.2125 71.7566 26.4425 71.7566H48.6425C48.8725 71.7566 49.093 71.6652 49.2557 71.5026C49.4183 71.34 49.5097 71.1194 49.5097 70.8894C49.5097 70.6594 49.4183 70.4388 49.2557 70.2762C49.093 70.1136 48.8725 70.0222 48.6425 70.0222H38.4097V59.905H67.894C69.2722 59.9064 70.5944 59.3604 71.5701 58.3871C72.5458 57.4138 73.0951 56.0929 73.0972 54.7148V8.78592C73.0972 5.91683 70.763 3.53784 67.894 3.53784ZM71.3628 54.7148C71.362 55.1695 71.2717 55.6196 71.097 56.0394C70.9222 56.4591 70.6665 56.8404 70.3443 57.1613C70.0222 57.4822 69.64 57.7365 69.2196 57.9097C68.7992 58.0829 68.3487 58.1716 67.894 58.1707H7.19092C6.73622 58.1716 6.28578 58.0829 5.86535 57.9097C5.44493 57.7365 5.06273 57.4822 4.74061 57.1613C4.41849 56.8404 4.16275 56.4591 3.98801 56.0394C3.81326 55.6196 3.72293 55.1695 3.72217 54.7148V48.9207H71.3628V54.7148ZM28.437 36.6355V38.6589H24.6792V36.6355H28.437ZM25.8354 34.9011V10.3937C28.2925 10.9718 30.1714 13.232 30.1714 15.8003V28.6621C30.169 29.0589 30.0567 29.4471 29.847 29.7839C29.6373 30.1207 29.3384 30.3928 28.9835 30.57C28.3427 30.8915 27.8037 31.3846 27.4265 31.9943C27.0493 32.604 26.8488 33.3064 26.8472 34.0234V34.9011H25.8354ZM28.437 40.3933V47.1863H24.6792V40.3933H28.437ZM45.6362 38.6589V36.6355H49.3651L49.3906 38.6589H45.6362ZM49.4124 40.3933L49.5009 47.1863H45.6362V40.3933H49.4124ZM47.6597 25.9613V34.9011H47.2261V25.872C47.2202 25.164 47.0643 24.4653 46.7686 23.822C46.4729 23.1787 46.0442 22.6054 45.5106 22.14C45.1917 21.8639 44.935 21.5232 44.7573 21.1406C44.5796 20.758 44.4851 20.342 44.48 19.9202V19.2917H50.4058V19.9202C50.4071 20.3391 50.3196 20.7535 50.1491 21.1362C49.9787 21.5189 49.7291 21.8611 49.4167 22.1403C48.8706 22.617 48.4317 23.204 48.1289 23.8626C47.826 24.5212 47.6661 25.2364 47.6597 25.9613V25.9613ZM71.3628 47.1863H51.2355L51.0875 35.7828C51.0856 35.552 50.9941 35.331 50.8322 35.1665C50.6704 35.002 50.451 34.9069 50.2203 34.9011H49.394V25.9613C49.4004 25.4817 49.5083 25.0088 49.7105 24.5739C49.9128 24.139 50.2049 23.7518 50.5676 23.4379C51.0634 22.9959 51.4598 22.4539 51.7309 21.8476C52.0019 21.2412 52.1414 20.5843 52.1401 19.9202V9.52548C52.1401 9.29549 52.0488 9.07492 51.8861 8.91229C51.7235 8.74966 51.5029 8.6583 51.2729 8.6583C51.043 8.6583 50.8224 8.74966 50.6598 8.91229C50.4971 9.07492 50.4058 9.29549 50.4058 9.52548V17.5574H48.3823V9.44122C48.3823 9.21123 48.291 8.99066 48.1283 8.82803C47.9657 8.6654 47.7451 8.57403 47.5151 8.57403C47.2851 8.57403 47.0646 8.6654 46.9019 8.82803C46.7393 8.99066 46.6479 9.21123 46.6479 9.44122V17.5574H44.48V9.52548C44.48 9.29549 44.3886 9.07492 44.226 8.91229C44.0634 8.74966 43.8428 8.6583 43.6128 8.6583C43.3828 8.6583 43.1622 8.74966 42.9996 8.91229C42.837 9.07492 42.7456 9.29549 42.7456 9.52548V19.9202C42.7508 20.5875 42.8974 21.2461 43.1758 21.8525C43.4542 22.459 43.8581 22.9995 44.3607 23.4383C44.7105 23.741 44.9922 24.1144 45.1872 24.5339C45.3821 24.9534 45.4859 25.4094 45.4917 25.872V34.9011H44.7792C44.5435 34.9112 44.3208 35.0117 44.1574 35.1818C43.994 35.3519 43.9025 35.5784 43.9019 35.8143V47.1863H30.1714V35.8143C30.1652 35.5759 30.0685 35.3488 29.9008 35.1792C29.7332 35.0095 29.5072 34.9101 29.2689 34.9011H28.5815V34.0234C28.5839 33.6267 28.6962 33.2384 28.9059 32.9016C29.1156 32.5648 29.4145 32.2927 29.7694 32.1156C30.4103 31.794 30.9493 31.301 31.3264 30.6913C31.7036 30.0815 31.9042 29.3791 31.9058 28.6621V15.8003C31.8958 14.1356 31.3199 12.5239 30.2726 11.2298C29.2254 9.93583 27.769 9.03657 26.143 8.67983L25.1692 8.47142C25.0411 8.44418 24.9086 8.44561 24.7812 8.4756C24.6537 8.50558 24.5345 8.56338 24.432 8.64485C24.3303 8.72567 24.2479 8.8281 24.1906 8.94471C24.1334 9.06132 24.1028 9.1892 24.1011 9.31909V34.9011H23.8278C23.5915 34.9109 23.3681 35.0112 23.2037 35.1812C23.0394 35.3511 22.9467 35.5778 22.9448 35.8143V47.1863H3.72217V8.78592C3.72168 7.86164 4.08556 6.97442 4.73491 6.31666C5.38425 5.6589 6.26671 5.28363 7.19092 5.27222H67.894C68.8183 5.28363 69.7007 5.6589 70.3501 6.31666C70.9994 6.97442 71.3633 7.86164 71.3628 8.78592V47.1863Z" fill="#F1D231"/>
<path d="M7.19092 9.15186C6.96093 9.15186 6.74035 9.24322 6.57772 9.40585C6.41509 9.56848 6.32373 9.78905 6.32373 10.019V10.7164C6.32373 10.9464 6.41509 11.167 6.57772 11.3296C6.74035 11.4922 6.96093 11.5836 7.19092 11.5836C7.42091 11.5836 7.64148 11.4922 7.80411 11.3296C7.96674 11.167 8.05811 10.9464 8.05811 10.7164V10.019C8.05811 9.78905 7.96674 9.56848 7.80411 9.40585C7.64148 9.24322 7.42091 9.15186 7.19092 9.15186Z" fill="#F1D231"/>
<path d="M7.19092 13.1826C6.96093 13.1826 6.74035 13.274 6.57772 13.4366C6.41509 13.5992 6.32373 13.8198 6.32373 14.0498V23.5466C6.32373 23.7766 6.41509 23.9972 6.57772 24.1598C6.74035 24.3225 6.96093 24.4138 7.19092 24.4138C7.42091 24.4138 7.64148 24.3225 7.80411 24.1598C7.96674 23.9972 8.05811 23.7766 8.05811 23.5466V14.0498C8.05811 13.8198 7.96674 13.5992 7.80411 13.4366C7.64148 13.274 7.42091 13.1826 7.19092 13.1826Z" fill="#F1D231"/>
</svg>
