<svg width="75" height="74" viewBox="0 0 75 74" fill="none" xmlns="http://www.w3.org/2000/svg">
<path d="M39.7461 22.4038C39.9761 22.4038 40.1967 22.3125 40.3593 22.1498C40.5219 21.9872 40.6133 21.7666 40.6133 21.5366C40.6133 21.3102 40.7032 21.093 40.8634 20.9328C41.0235 20.7727 41.2407 20.6827 41.4672 20.6827C41.6936 20.6827 41.9108 20.7727 42.071 20.9328C42.2311 21.093 42.3211 21.3102 42.3211 21.5366C42.3211 21.7666 42.4124 21.9872 42.5751 22.1498C42.7377 22.3125 42.9583 22.4038 43.1883 22.4038C43.4182 22.4038 43.6388 22.3125 43.8014 22.1498C43.9641 21.9872 44.0554 21.7666 44.0554 21.5366C44.0554 20.8502 43.7828 20.1918 43.2974 19.7064C42.812 19.2211 42.1536 18.9484 41.4672 18.9484C40.7807 18.9484 40.1224 19.2211 39.637 19.7064C39.1516 20.1918 38.8789 20.8502 38.8789 21.5366C38.8789 21.6505 38.9013 21.7633 38.9449 21.8685C38.9885 21.9737 39.0524 22.0693 39.1329 22.1498C39.2134 22.2303 39.309 22.2942 39.4142 22.3378C39.5195 22.3814 39.6322 22.4038 39.7461 22.4038Z" fill="#F1D231"/>
<path d="M31.4341 21.5366C31.4341 21.3102 31.524 21.093 31.6842 20.9328C31.8443 20.7727 32.0615 20.6827 32.288 20.6827C32.5144 20.6827 32.7316 20.7727 32.8918 20.9328C33.0519 21.093 33.1419 21.3102 33.1419 21.5366C33.1419 21.7666 33.2332 21.9872 33.3959 22.1498C33.5585 22.3125 33.7791 22.4038 34.0091 22.4038C34.239 22.4038 34.4596 22.3125 34.6222 22.1498C34.7849 21.9872 34.8762 21.7666 34.8762 21.5366C34.8762 20.8502 34.6035 20.1918 34.1182 19.7064C33.6328 19.2211 32.9744 18.9484 32.288 18.9484C31.6015 18.9484 30.9432 19.2211 30.4578 19.7064C29.9724 20.1918 29.6997 20.8502 29.6997 21.5366C29.6997 21.7666 29.7911 21.9872 29.9537 22.1498C30.1163 22.3125 30.3369 22.4038 30.5669 22.4038C30.7969 22.4038 31.0175 22.3125 31.1801 22.1498C31.3427 21.9872 31.4341 21.7666 31.4341 21.5366Z" fill="#F1D231"/>
<path d="M33.3951 27.371C33.2325 27.5337 33.1411 27.7542 33.1411 27.9842C33.1411 28.2142 33.2325 28.4348 33.3951 28.5974C34.3194 29.5197 35.5718 30.0376 36.8776 30.0376C38.1833 30.0376 39.4357 29.5197 40.3601 28.5974C40.5227 28.4347 40.614 28.2142 40.614 27.9842C40.614 27.7542 40.5226 27.5336 40.36 27.371C40.1973 27.2083 39.9768 27.117 39.7468 27.117C39.5168 27.117 39.2962 27.2084 39.1336 27.371C38.5348 27.9685 37.7234 28.304 36.8775 28.304C36.0316 28.304 35.2202 27.9685 34.6214 27.371C34.4588 27.2084 34.2382 27.1171 34.0083 27.1171C33.7783 27.1171 33.5577 27.2084 33.3951 27.371V27.371Z" fill="#F1D231"/>
<path d="M12.1087 71.1094H62.4345C62.5476 71.1091 62.6595 71.0863 62.7638 71.0424C62.868 70.9986 62.9625 70.9344 63.0419 70.8538C63.1212 70.7731 63.1837 70.6775 63.2258 70.5726C63.2679 70.4676 63.2888 70.3553 63.2872 70.2422V51.7896C63.2971 48.9561 62.3487 46.2026 60.5959 43.9763C58.8432 41.75 56.3891 40.1818 53.6325 39.5264C51.0032 38.872 48.473 37.8701 46.1085 36.547L44.2091 35.5067V33.7245C45.3076 32.7184 46.1865 31.4962 46.7907 30.1346C47.3949 28.773 47.7114 27.3013 47.7203 25.8117C47.7683 25.8141 47.8163 25.8165 47.8648 25.8165C48.4697 25.8196 49.0595 25.6281 49.5471 25.2702C50.0347 24.9124 50.3943 24.4071 50.5726 23.8292C50.751 23.2512 50.7386 22.6312 50.5375 22.0608C50.3363 21.4904 49.957 20.9998 49.4555 20.6616C48.9337 20.3105 48.301 20.1636 47.6778 20.2488V20.1187C47.7736 20.0972 47.8598 20.0453 47.9235 19.9707C49.1956 18.7957 50.1791 17.3427 50.7972 15.725L51.482 13.9301C51.6377 13.521 51.6961 13.0814 51.6526 12.6459C51.6091 12.2104 51.4649 11.791 51.2313 11.4209C50.9978 11.0507 50.6813 10.74 50.307 10.5132C49.9326 10.2865 49.5106 10.15 49.0744 10.1144C49.1537 9.12713 48.8588 8.14612 48.2484 7.36611C47.6379 6.58611 46.7565 6.06414 45.7791 5.90381L45.7529 5.89947L44.5389 4.58857C43.8083 3.80291 42.8455 3.27167 41.7913 3.07259C40.7371 2.87351 39.6469 3.01704 38.6802 3.48219L38.6533 3.46773C37.9073 3.07229 37.0728 2.87373 36.2287 2.89085C35.3846 2.90797 34.5588 3.14021 33.8296 3.56558L33.7807 3.55922C32.1633 3.34502 30.5182 3.59213 29.0351 4.27209C27.552 4.95204 26.2912 6.03717 25.3979 7.40245C24.9357 7.5542 24.5108 7.80186 24.151 8.12921C23.7911 8.45656 23.5045 8.85622 23.3098 9.30203C22.5425 11.0092 22.793 13.6884 24.0545 17.2657C24.4553 18.4021 24.8928 19.4429 25.2591 20.2575C24.8997 20.3166 24.5578 20.4548 24.2583 20.6622C23.9368 20.883 23.6648 21.1683 23.4598 21.5001C23.2547 21.8318 23.121 22.2026 23.0672 22.5889C23.0102 22.9903 23.0401 23.3993 23.1549 23.7882C23.2697 24.177 23.4667 24.5367 23.7326 24.8428C23.9984 25.1489 24.327 25.3943 24.6959 25.5623C25.0649 25.7304 25.4656 25.8173 25.8711 25.817C25.926 25.817 25.9809 25.8147 26.0359 25.8115C26.0464 27.4743 26.4397 29.1123 27.185 30.5987C27.9304 32.0851 29.0079 33.3799 30.3341 34.383V35.8208L27.9385 37.0241C25.7004 38.128 23.3416 38.9677 20.9095 39.5264C18.1531 40.182 15.6993 41.7503 13.9468 43.9766C12.1942 46.2029 11.246 48.9563 11.2559 51.7896V70.2422C11.2544 70.3553 11.2752 70.4676 11.3173 70.5726C11.3594 70.6775 11.422 70.7731 11.5013 70.8538C11.5806 70.9344 11.6751 70.9986 11.7794 71.0424C11.8836 71.0863 11.9956 71.1091 12.1087 71.1094ZM45.3653 69.375H30.7677V62.8884C35.3927 64.9065 40.5958 64.9156 45.3653 62.9133V69.375ZM61.5528 69.375H54.1135L53.6449 63.1601H61.5528V69.375ZM52.1583 40.9428C52.5919 41.0402 52.8636 41.1307 53.2079 41.2131C55.5873 41.7775 57.7062 43.1293 59.2209 45.0491C60.7356 46.9689 61.5574 49.3442 61.5528 51.7896V61.4258H53.5146L52.6894 50.7198C52.6713 50.526 52.6151 50.3377 52.5239 50.1657C52.4328 49.9937 52.3085 49.8415 52.1583 49.7177V40.9428ZM48.4005 39.5903C49.1231 39.8864 49.8458 40.154 50.4239 40.3946V49.4297H48.4005V39.5903ZM48.4685 22.0875C48.6341 22.1975 48.7661 22.3509 48.8502 22.531C48.9342 22.711 48.9671 22.9107 48.9451 23.1082C48.9232 23.3057 48.8472 23.4933 48.7257 23.6505C48.6041 23.8077 48.4416 23.9284 48.2559 23.9993C48.074 24.0776 47.8733 24.102 47.6778 24.0695V22.0387C47.8029 21.9788 47.9412 21.9519 48.0796 21.9605C48.218 21.9692 48.3519 22.0131 48.4685 22.0881V22.0875ZM25.9981 24.0668C25.8071 24.0942 25.6123 24.0709 25.4332 23.9993C25.2097 23.9066 25.0236 23.7421 24.9042 23.5317C24.7848 23.3213 24.739 23.0771 24.7741 22.8378C24.7922 22.6885 24.8414 22.5445 24.9185 22.4154C24.9957 22.2863 25.0992 22.1748 25.2221 22.0881C25.3356 22.0115 25.468 21.9674 25.6048 21.9606C25.7416 21.9538 25.8776 21.9846 25.9981 22.0497V24.0668ZM25.9981 17.6178C25.8723 17.3142 25.7634 17.004 25.6718 16.6884C25.2719 15.5808 24.966 14.4414 24.7575 13.2824C24.7983 13.3286 24.8446 13.3697 24.8952 13.4048C25.2428 13.6254 25.6125 13.8092 25.9981 13.9533V17.6178ZM25.8449 11.9396C25.6508 11.8172 25.4162 11.7768 25.1924 11.8271C24.9685 11.8774 24.7737 12.0144 24.6507 12.208C24.6443 12.2179 24.6392 12.2283 24.6333 12.2385C24.5632 11.3099 24.6478 10.5558 24.8913 10.0127C25.0031 9.74972 25.1778 9.51821 25.3999 9.33849C25.6221 9.15876 25.885 9.03631 26.1655 8.98189C26.2767 8.95453 26.3813 8.90542 26.4735 8.83741C26.5656 8.76939 26.6433 8.6838 26.7021 8.58558C27.3967 7.42581 28.4154 6.4946 29.6327 5.90675C30.85 5.31889 32.2128 5.10007 33.5529 5.27726L33.9112 5.32453C34.1219 5.35247 34.3356 5.30195 34.5115 5.1826C34.9977 4.85224 35.5647 4.66074 36.1517 4.62871C36.7386 4.59667 37.3232 4.72531 37.8425 5.00078L38.281 5.23203C38.4145 5.30253 38.5641 5.33695 38.715 5.33188C38.8659 5.32681 39.0129 5.28242 39.1414 5.20312C39.788 4.80591 40.5523 4.64489 41.3043 4.74744C42.0562 4.84998 42.7495 5.20977 43.2661 5.76563L44.6825 7.29506C44.8137 7.43663 44.9883 7.53042 45.1787 7.56158L45.4989 7.61405C45.8243 7.66717 46.1337 7.79243 46.4044 7.98063C46.6752 8.16883 46.9004 8.41521 47.0636 8.70172C47.2267 8.98823 47.3238 9.30762 47.3475 9.63649C47.3713 9.96536 47.3212 10.2954 47.2009 10.6024C47.1509 10.7299 47.1318 10.8674 47.1452 11.0036C47.1586 11.1399 47.2041 11.2711 47.278 11.3864C47.3518 11.5017 47.4519 11.5979 47.57 11.6671C47.6882 11.7363 47.8211 11.7765 47.9578 11.7845L48.9089 11.84C49.0799 11.85 49.246 11.9 49.3941 11.9861C49.5421 12.0722 49.6677 12.1919 49.7609 12.3355C49.8541 12.4792 49.9121 12.6427 49.9303 12.813C49.9486 12.9832 49.9265 13.1554 49.8659 13.3155L49.1866 15.1106C48.8561 15.9813 48.3989 16.7985 47.8297 17.5357C47.6156 16.141 47.5146 14.7313 47.5276 13.3203C47.5276 12.0951 46.7537 10.4047 45.2746 9.5444C44.3137 8.98565 42.7122 8.57922 40.5386 9.81598L40.5059 9.83433C38.2128 11.1393 35.8414 12.4888 31.3114 9.73143C31.2141 9.67222 31.1061 9.63275 30.9936 9.61528C30.881 9.59781 30.7662 9.60267 30.6555 9.62959C30.5449 9.65651 30.4406 9.70497 30.3487 9.77219C30.2567 9.83941 30.1789 9.92407 30.1197 10.0214C30.0605 10.1186 30.0211 10.2266 30.0036 10.3392C29.9861 10.4517 29.991 10.5666 30.0179 10.6772C30.0448 10.7879 30.0933 10.8922 30.1605 10.9841C30.2277 11.076 30.3124 11.1538 30.4097 11.213C30.6265 11.3447 30.8379 11.4655 31.0475 11.5811C30.6403 11.9717 30.1521 12.2678 29.6175 12.4483C29.0829 12.6288 28.5151 12.6892 27.9545 12.6254C27.2118 12.5433 26.4939 12.3099 25.8449 11.9396V11.9396ZM27.7325 25.7438V14.3579C28.0216 14.3764 28.1411 14.3868 28.3414 14.3868C29.7655 14.3868 31.3426 13.8795 32.6947 12.3668C36.7481 13.9598 39.3686 12.4738 41.3589 11.3406L41.3937 11.3221C42.5634 10.6573 43.5762 10.5625 44.4011 11.0426C45.3499 11.5943 45.7924 12.6926 45.7924 13.2844C45.7817 14.5448 45.8563 15.8044 46.0157 17.0547H45.9434V25.7438C45.9434 28.1587 44.9841 30.4747 43.2765 32.1823C41.5689 33.8899 39.2529 34.8492 36.838 34.8492C34.4231 34.8492 32.107 33.8899 30.3994 32.1823C28.6918 30.4747 27.7325 28.1587 27.7325 25.7438V25.7438ZM42.4747 35.0287V41.9662C41.8117 42.6846 41.0071 43.2579 40.1116 43.65C39.2161 44.0421 38.2491 44.2445 37.2716 44.2445C36.294 44.2445 35.327 44.0421 34.4315 43.65C33.5361 43.2579 32.7315 42.6846 32.0684 41.9662V35.459C33.6991 36.2688 35.5077 36.6539 37.3268 36.5787C39.1458 36.5035 40.9165 35.9704 42.4747 35.0287V35.0287ZM27.877 38.9801C28.1661 38.8487 28.4407 38.7134 28.7173 38.5742L30.3341 37.7615V42.2952C30.3344 42.5007 30.4076 42.6994 30.5406 42.856C31.3692 43.8347 32.4011 44.6212 33.5645 45.1606C34.7279 45.7 35.9948 45.9794 37.2772 45.9794C38.5596 45.9794 39.8265 45.7 40.9899 45.1606C42.1533 44.6212 43.1852 43.8347 44.0138 42.856C44.1436 42.6983 44.2129 42.4994 44.2091 42.2952V37.4856L45.2769 38.0669C45.7362 38.3194 46.2325 38.5583 46.6661 38.7873V49.4297H27.877V38.9801ZM24.1192 40.444C24.8419 40.2187 25.42 39.9782 26.1427 39.7183V49.4297H24.1192V40.444ZM51.0012 51.1641L52.3742 69.375H47.0997V61.5414C47.0952 61.3909 47.0528 61.244 46.9763 61.1143C46.8998 60.9846 46.7918 60.8764 46.6622 60.7997C46.5327 60.723 46.3858 60.6803 46.2353 60.6756C46.0848 60.6709 45.9356 60.7043 45.8015 60.7728C43.4018 62.0262 40.7338 62.6784 38.0265 62.6733C35.3192 62.6683 32.6536 62.0062 30.2586 60.7439C30.1306 60.6742 29.9863 60.6398 29.8406 60.6441C29.6949 60.6485 29.553 60.6913 29.4293 60.7684C29.3043 60.8469 29.2019 60.9567 29.1324 61.087C29.063 61.2172 29.0288 61.3634 29.0333 61.5109V69.375H22.1688L23.5418 51.1641H51.0012ZM12.9903 51.7896C12.9858 49.3442 13.8075 46.9689 15.3222 45.0491C16.837 43.1293 18.9559 41.7775 21.3353 41.2131C21.686 41.1291 21.9513 41.0417 22.3848 40.9512V49.7177C22.2347 49.8415 22.1104 49.9937 22.0192 50.1656C21.9281 50.3376 21.8718 50.5259 21.8537 50.7196L21.0286 61.4258H12.9903V51.7896ZM12.9903 63.1601H20.8982L20.4296 69.375H12.9903V63.1601Z" fill="#F1D231"/>
<path d="M25.709 55.5246C25.939 55.5246 26.1595 55.4332 26.3222 55.2706C26.4848 55.108 26.5762 54.8874 26.5762 54.6574V54.0632C26.5762 53.8332 26.4848 53.6127 26.3222 53.45C26.1595 53.2874 25.939 53.196 25.709 53.196C25.479 53.196 25.2584 53.2874 25.0958 53.45C24.9332 53.6127 24.8418 53.8332 24.8418 54.0632V54.6574C24.8418 54.8874 24.9332 55.108 25.0958 55.2706C25.2584 55.4332 25.479 55.5246 25.709 55.5246Z" fill="#F1D231"/>
<path d="M25.709 66.459C25.939 66.459 26.1595 66.3676 26.3222 66.205C26.4848 66.0424 26.5762 65.8218 26.5762 65.5918V57.498C26.5762 57.2681 26.4848 57.0475 26.3222 56.8849C26.1595 56.7222 25.939 56.6309 25.709 56.6309C25.479 56.6309 25.2584 56.7222 25.0958 56.8849C24.9332 57.0475 24.8418 57.2681 24.8418 57.498V65.5918C24.8418 65.8218 24.9332 66.0424 25.0958 66.205C25.2584 66.3676 25.479 66.459 25.709 66.459V66.459Z" fill="#F1D231"/>
</svg>
