<svg width="75" height="75" viewBox="0 0 75 75" fill="none" xmlns="http://www.w3.org/2000/svg">
<path d="M67.9983 5.99491H36.7983C36.2055 5.99365 35.6184 6.10953 35.0705 6.33588C34.5226 6.56223 34.0249 6.8946 33.6059 7.31389C33.1869 7.73318 32.8548 8.23113 32.6288 8.77914C32.4028 9.32714 32.2873 9.9144 32.2889 10.5072V31.6781C32.287 32.2715 32.4023 32.8594 32.628 33.4082C32.8538 33.957 33.1857 34.4558 33.6046 34.8761C34.0235 35.2963 34.5213 35.6298 35.0693 35.8573C35.6174 36.0848 36.2049 36.2019 36.7983 36.2019H42.7316C46.0829 36.2019 46.6062 38.8045 46.8551 41.4653C46.8778 41.8572 46.9325 42.2465 47.0186 42.6294C47.0578 42.8114 47.1514 42.9772 47.2868 43.1049C47.4223 43.2326 47.5934 43.3162 47.7773 43.3447C47.9643 43.3726 48.1552 43.3389 48.3214 43.2488C49.0265 42.9776 52.2348 41.4856 53.1107 36.5977C53.1307 36.4871 53.1886 36.3871 53.2746 36.3148C53.3606 36.2425 53.4691 36.2026 53.5814 36.2019H67.9983C68.5896 36.2011 69.1749 36.0831 69.7204 35.8548C70.2659 35.6265 70.7607 35.2924 71.1764 34.8718C71.592 34.4512 71.9202 33.9524 72.142 33.4042C72.3638 32.8561 72.4748 32.2694 72.4686 31.6781V10.5072C72.4747 9.91647 72.3634 9.33044 72.1414 8.78301C71.9194 8.23557 71.5911 7.73762 71.1753 7.31796C70.7595 6.8983 70.2647 6.56528 69.7193 6.33818C69.174 6.11108 68.589 5.9944 67.9983 5.99491ZM70.7343 31.6781C70.7407 32.0417 70.6747 32.4029 70.5402 32.7408C70.4056 33.0786 70.2052 33.3863 69.9506 33.6459C69.6959 33.9056 69.3922 34.1119 69.057 34.253C68.7218 34.394 68.3619 34.467 67.9983 34.4676H53.5798C53.0613 34.4684 52.5596 34.6511 52.1619 34.9839C51.7643 35.3167 51.4961 35.7784 51.4039 36.2887C50.8981 39.1083 49.5042 40.509 48.5679 41.153C48.367 39.0358 47.821 34.4676 42.7315 34.4676H36.7983C36.4326 34.4677 36.0705 34.3956 35.7328 34.2553C35.3951 34.115 35.0885 33.9093 34.8306 33.6501C34.5727 33.3908 34.3686 33.0831 34.23 32.7447C34.0915 32.4063 34.0212 32.0438 34.0233 31.6781V10.5072C34.0214 10.1421 34.0919 9.78025 34.2306 9.44256C34.3694 9.10486 34.5737 8.798 34.8317 8.53971C35.0897 8.28142 35.3964 8.07682 35.7339 7.93771C36.0715 7.79861 36.4332 7.72777 36.7983 7.72928H67.9983C68.3613 7.72854 68.7209 7.80019 69.0559 7.94006C69.3909 8.07992 69.6947 8.28518 69.9495 8.54384C70.2042 8.8025 70.4048 9.10936 70.5396 9.44647C70.6743 9.78358 70.7405 10.1442 70.7343 10.5072V31.6781Z" fill="#F1D231"/>
<path d="M64.3943 26.8315C63.9697 24.3396 62.7793 22.0419 60.9886 20.2577C59.1979 18.4735 56.8959 17.2916 54.4025 16.876V16.1222C54.7634 15.8319 55.0537 15.4635 55.2515 15.0447C55.4493 14.6259 55.5494 14.1676 55.5443 13.7045C55.5471 13.2882 55.4675 12.8754 55.3102 12.49C55.1528 12.1046 54.9207 11.7541 54.6274 11.4587C54.334 11.1634 53.9851 10.929 53.6008 10.769C53.2164 10.609 52.8042 10.5267 52.3879 10.5267C51.9716 10.5267 51.5594 10.609 51.1751 10.769C50.7907 10.929 50.4418 11.1634 50.1484 11.4587C49.8551 11.7541 49.623 12.1046 49.4657 12.49C49.3083 12.8754 49.2288 13.2882 49.2316 13.7045C49.2232 14.1663 49.3201 14.624 49.5148 15.0429C49.7096 15.4618 49.9971 15.8309 50.3556 16.1222V16.876C47.8644 17.2922 45.5649 18.4748 43.7774 20.2592C41.9899 22.0436 40.8033 24.341 40.3829 26.8315C39.8443 26.8701 39.3417 27.1161 38.9807 27.5176C38.6196 27.9192 38.4284 28.4451 38.4471 28.9848C38.4658 29.5245 38.693 30.0358 39.081 30.4114C39.469 30.787 39.9875 30.9976 40.5275 30.9988H64.2702C64.8099 30.9947 65.327 30.7815 65.7129 30.4041C66.0987 30.0267 66.3233 29.5144 66.3393 28.9749C66.3554 28.4354 66.1618 27.9107 65.7991 27.511C65.4364 27.1113 64.9328 26.8677 64.3943 26.8315V26.8315ZM52.3982 12.2824C52.6795 12.2824 52.9545 12.3658 53.1884 12.5221C53.4223 12.6784 53.6045 12.9005 53.7122 13.1604C53.8198 13.4203 53.848 13.7062 53.7931 13.9821C53.7382 14.258 53.6027 14.5114 53.4038 14.7103C53.2049 14.9092 52.9515 15.0446 52.6756 15.0995C52.3997 15.1543 52.1138 15.1262 51.8539 15.0185C51.594 14.9108 51.3719 14.7285 51.2157 14.4946C51.0594 14.2607 50.976 13.9857 50.9761 13.7045C50.9764 13.3273 51.1264 12.9656 51.3931 12.6989C51.6598 12.4322 52.0215 12.2822 52.3987 12.282L52.3982 12.2824ZM52.3982 18.4231C54.8094 18.4304 57.1445 19.268 59.0105 20.795C60.8765 22.3221 62.1595 24.4453 62.6436 26.8074H42.1536C42.6376 24.4453 43.9206 22.3221 45.7865 20.7951C47.6524 19.268 49.9874 18.4304 52.3985 18.4231H52.3982ZM64.2702 29.2644H40.5275C40.4316 29.2644 40.3397 29.2263 40.272 29.1586C40.2042 29.0908 40.1661 28.9989 40.1661 28.9031C40.1661 28.8072 40.2042 28.7153 40.272 28.6476C40.3397 28.5798 40.4316 28.5417 40.5275 28.5417H64.2702C64.366 28.5417 64.4579 28.5798 64.5257 28.6476C64.5934 28.7153 64.6315 28.8072 64.6315 28.9031C64.6315 28.9989 64.5934 29.0908 64.5257 29.1586C64.4579 29.2263 64.366 29.2644 64.2702 29.2644Z" fill="#F1D231"/>
<path d="M48.3466 49.4928L48.3321 49.4776C47.8914 48.9985 46.9796 48.2131 45.7396 48.2131C44.8264 48.2131 43.9021 48.6548 43.0658 49.4903L40.9697 51.5869C39.8702 52.6793 38.3823 53.291 36.8324 53.2876C35.2826 53.2843 33.7973 52.6663 32.7025 51.5692L19.7247 38.5363L19.7234 38.535L19.7047 38.5159C18.6175 37.4111 18.0131 35.9202 18.0239 34.3703C18.0347 32.8204 18.66 31.3381 19.7625 30.2487L21.8079 28.2322C22.7087 27.3315 23.1467 26.44 23.1467 25.5043C23.1467 24.5686 22.7087 23.6773 21.8112 22.7796C21.5406 22.5063 15.2037 16.105 14.3219 15.2769L14.2907 15.2453C13.4998 14.4543 12.5996 14.0363 11.6853 14.0363C10.7788 14.0363 9.85644 14.4524 9.01801 15.2397C9.01137 15.2459 9.00486 15.2523 8.9985 15.2586L4.35529 19.9029C3.09909 21.1215 2.33609 22.7603 2.21218 24.506C1.99437 27.1635 2.48173 29.913 3.79119 33.4184C5.88573 39.078 9.05371 44.3563 13.7638 50.0329C19.4756 56.8507 26.3473 62.2323 34.192 66.03C37.0854 67.4136 40.9458 69.0363 45.1504 69.3055C45.384 69.321 45.6239 69.321 45.8358 69.321C48.2082 69.321 50.0395 68.5443 51.5989 66.8768C51.6063 66.869 51.6134 66.8609 51.6206 66.8528L55.8935 62.4868C57.5971 60.7114 57.5846 58.7137 55.862 57.0078L48.3466 49.4928ZM10.2152 16.4957C10.7229 16.0218 11.2312 15.7713 11.6858 15.7713C12.246 15.7713 12.7448 16.1524 13.0634 16.4713L13.1043 16.5122C13.1116 16.5195 13.1188 16.5266 13.1266 16.5337C13.9371 17.291 20.5122 23.9337 20.5821 24.0035C21.1332 24.5546 21.4127 25.0597 21.4127 25.5049C21.4127 25.9501 21.1332 26.4552 20.5864 27.0021L20.0661 27.515L9.63097 17.0799L10.2152 16.4957ZM53.0005 62.9278C52.0596 63.8057 51.1654 64.7322 50.3214 65.7035C49.0987 67.0057 47.7145 67.5866 45.8356 67.5866C45.6418 67.5866 45.4413 67.5866 45.2633 67.5748C41.3533 67.3246 37.6926 65.7816 34.9437 64.4673C27.3249 60.7791 20.6461 55.548 15.0957 48.9226C10.518 43.4042 7.44277 38.2865 5.41716 32.814C4.20035 29.5568 3.74522 27.0384 3.94193 24.6377C4.03557 23.31 4.61631 22.0636 5.57268 21.1379L8.40549 18.3061L18.8318 28.7326L18.5459 29.0143C17.1171 30.4261 16.3064 32.3469 16.2916 34.3555C16.2767 36.3641 17.0589 38.2967 18.4666 39.7295L31.4744 52.793C32.8939 54.2155 34.8198 55.0169 36.8294 55.0212C38.839 55.0255 40.7683 54.2324 42.1939 52.816L42.2053 52.8045L42.5545 52.4554L53.0143 62.9152L53.0005 62.9278ZM54.6779 61.2483C54.6379 61.2838 54.6012 61.3228 54.5683 61.3648C54.463 61.4773 54.3565 61.5881 54.2488 61.6973L43.7799 51.2283L44.2923 50.7159C44.5796 50.4286 45.1497 49.9467 45.7392 49.9467C46.3473 49.9467 46.8677 50.4454 47.0633 50.6598C47.0715 50.6688 47.0798 50.6776 47.0884 50.6863L54.6386 58.2365C55.6935 59.2816 55.7065 60.157 54.6782 61.2483H54.6779Z" fill="#F1D231"/>
<path d="M8.8776 31.3865C8.6793 30.9029 8.48736 30.4117 8.30887 29.9268C8.22923 29.711 8.06715 29.5357 7.85826 29.4394C7.64938 29.3432 7.41081 29.3338 7.19504 29.4135C6.97927 29.4931 6.80397 29.6552 6.7077 29.8641C6.61144 30.0729 6.6021 30.3115 6.68174 30.5273C6.86789 31.0318 7.06677 31.5422 7.27272 32.0449C7.36351 32.2524 7.53187 32.4161 7.74181 32.5011C7.95175 32.5861 8.18661 32.5855 8.39617 32.4996C8.60573 32.4137 8.77335 32.2492 8.86321 32.0413C8.95307 31.8334 8.95803 31.5986 8.87702 31.3871L8.8776 31.3865Z" fill="#F1D231"/>
<path d="M10.0437 34.002C9.99413 33.8994 9.92487 33.8076 9.83986 33.7319C9.75484 33.6561 9.65573 33.5978 9.54819 33.5603C9.44065 33.5229 9.32678 33.5069 9.21308 33.5135C9.09939 33.52 8.98809 33.5489 8.88555 33.5984C8.78301 33.648 8.69123 33.7172 8.61546 33.8023C8.53969 33.8873 8.4814 33.9864 8.44393 34.0939C8.40646 34.2015 8.39053 34.3153 8.39707 34.429C8.40361 34.5427 8.43247 34.654 8.48202 34.7566C10.4565 38.843 13.1287 42.8937 16.6512 47.139C16.7992 47.3124 17.0094 47.4206 17.2365 47.4401C17.4636 47.4597 17.6893 47.3891 17.8647 47.2435C18.0401 47.098 18.1512 46.8892 18.1738 46.6624C18.1965 46.4356 18.129 46.209 17.9858 46.0316C14.5549 41.8954 11.9563 37.9604 10.0437 34.002V34.002Z" fill="#F1D231"/>
</svg>
