<svg width="74" height="74" viewBox="0 0 74 74" fill="none" xmlns="http://www.w3.org/2000/svg">
<path d="M37.9084 24.3969L35.8964 29.128C35.8353 29.2715 35.8141 29.4289 35.8351 29.5835C35.856 29.7381 35.9182 29.8842 36.0152 30.0064C36.1122 30.1286 36.2404 30.2224 36.3862 30.2778C36.532 30.3333 36.6901 30.3484 36.8438 30.3215L44.35 29.0084C47.5936 30.1567 51.1428 30.0953 54.3447 28.8354C57.5466 27.5755 60.1859 25.2018 61.7772 22.1511C63.3685 19.1003 63.8048 15.5775 63.0058 12.2307C62.2068 8.88389 60.2263 5.9381 57.4285 3.93515C54.6307 1.93219 51.2037 1.00678 47.778 1.3291C44.3523 1.65143 41.1581 3.19982 38.783 5.68949C36.4079 8.17916 35.0116 11.4427 34.8509 14.8798C34.6902 18.3169 35.7759 21.6965 37.9084 24.3969V24.3969ZM49.0502 3.17969C50.8724 3.17748 52.673 3.5753 54.3247 4.34506C55.9764 5.11482 57.439 6.23775 58.6093 7.63459C59.7796 9.03143 60.629 10.6681 61.0975 12.4291C61.5661 14.1901 61.6424 16.0325 61.321 17.8262C60.9997 19.6199 60.2885 21.3213 59.2378 22.8101C58.187 24.2989 56.8223 25.5389 55.2398 26.4426C53.6574 27.3463 51.896 27.8917 50.0797 28.0401C48.2635 28.1886 46.4368 27.9366 44.7287 27.3019C44.5846 27.2488 44.4291 27.2347 44.2779 27.261L38.1167 28.3388L39.7097 24.5931C39.7727 24.4449 39.7932 24.282 39.7689 24.1228C39.7446 23.9635 39.6764 23.8142 39.5719 23.6916C38.0297 21.8824 37.0382 19.6692 36.7146 17.314C36.3911 14.9588 36.7491 12.5602 37.7463 10.4022C38.7435 8.24411 40.3381 6.41694 42.3414 5.13695C44.3448 3.85697 46.6728 3.17774 49.0502 3.17969V3.17969Z" fill="#F1D231"/>
<path d="M38.2334 19.0088C38.2342 19.3993 38.3543 19.7802 38.5777 20.1005C38.801 20.4208 39.117 20.6652 39.4831 20.8009C39.8274 23.2575 41.9533 24.8594 44.9912 24.8594H53.1087C56.1466 24.8594 58.2725 23.2575 58.6168 20.8015C58.8945 20.6995 59.1448 20.5342 59.3477 20.3188C59.5506 20.1033 59.7006 19.8436 59.7859 19.5602C59.8711 19.2768 59.8892 18.9775 59.8388 18.6859C59.7885 18.3942 59.6709 18.1183 59.4955 17.88C59.69 17.6054 59.8234 17.2923 59.8867 16.9618C59.9499 16.6313 59.9416 16.2911 59.8623 15.9641C59.7829 15.6371 59.6344 15.3309 59.4267 15.0662C59.219 14.8015 58.957 14.5843 58.6582 14.4294C58.1253 12.2842 56.8897 10.3791 55.1485 9.01749C53.4072 7.6559 51.2604 6.91618 49.0499 6.91618C46.8395 6.91618 44.6927 7.6559 42.9514 9.01749C41.2101 10.3791 39.9746 12.2842 39.4416 14.4294C39.1429 14.5844 38.8809 14.8015 38.6732 15.0663C38.4655 15.331 38.3169 15.6373 38.2376 15.9643C38.1582 16.2913 38.1499 16.6315 38.2132 16.962C38.2765 17.2926 38.4099 17.6057 38.6044 17.8803C38.3635 18.2072 38.2335 18.6026 38.2334 19.0088ZM40.1497 19.2227C40.0999 19.219 40.0534 19.1965 40.0196 19.1597C39.9858 19.123 39.9673 19.0747 39.9677 19.0248C39.9682 18.99 39.98 18.9562 40.0015 18.9288C40.0229 18.9013 40.0528 18.8817 40.0865 18.8729L50.9164 18.9336C51.0302 18.9336 51.2121 19.0781 51.4324 19.2227H40.1497ZM53.1087 23.125H44.9912C43.3952 23.125 41.7057 22.5469 41.2736 20.957H53.024C53.2469 21.3134 53.4226 21.6972 53.5467 22.0988C53.5928 22.2223 53.6655 22.3341 53.7599 22.4262C53.8542 22.5182 53.9678 22.5882 54.0923 22.6312C54.2169 22.6742 54.3495 22.689 54.4805 22.6747C54.6115 22.6604 54.7378 22.6172 54.8501 22.5483C55.5237 22.0598 56.1651 21.5282 56.7702 20.957H56.8263C56.3942 22.5469 54.705 23.125 53.1087 23.125V23.125ZM53.6723 18.9336H56.1836C55.7639 19.5087 55.2786 20.0328 54.7374 20.4953C54.4484 19.9327 54.0907 19.4081 53.6725 18.9336H53.6723ZM57.9544 19.1897C57.9964 19.0852 58.0327 18.9784 58.0633 18.87C58.0844 18.8865 58.1015 18.9076 58.1134 18.9316C58.1253 18.9556 58.1316 18.982 58.1318 19.0088C58.1317 19.0561 58.1131 19.1015 58.08 19.1353C58.0468 19.1691 58.0018 19.1886 57.9545 19.1897H57.9544ZM49.0498 8.65613C50.7533 8.64324 52.4172 9.1689 53.8041 10.1581C55.191 11.1472 56.23 12.5493 56.7725 14.1641H41.3273C41.8699 12.5493 42.9088 11.1472 44.2957 10.1581C45.6826 9.16894 47.3465 8.64327 49.0499 8.65613H49.0498ZM40.5327 15.8984H57.5667C57.7392 15.8984 57.9047 15.967 58.0266 16.0889C58.1486 16.2109 58.2171 16.3763 58.2171 16.5488C58.2171 16.7213 58.1486 16.8868 58.0266 17.0087C57.9047 17.1307 57.7392 17.1992 57.5667 17.1992H40.5327C40.3602 17.1992 40.1948 17.1307 40.0728 17.0087C39.9508 16.8868 39.8823 16.7213 39.8823 16.5488C39.8823 16.3763 39.9508 16.2109 40.0728 16.0889C40.1948 15.967 40.3602 15.8984 40.5327 15.8984Z" fill="#F1D231"/>
<path d="M45.2391 42.0325C44.79 42.0325 44.3509 42.1656 43.9774 42.4152C43.604 42.6647 43.3129 43.0194 43.141 43.4344C42.9691 43.8494 42.9241 44.306 43.0118 44.7465C43.0994 45.1871 43.3157 45.5917 43.6333 45.9093C43.9509 46.2269 44.3556 46.4432 44.7961 46.5308C45.2366 46.6185 45.6932 46.5735 46.1082 46.4016C46.5232 46.2297 46.8779 45.9386 47.1274 45.5652C47.377 45.1917 47.5102 44.7526 47.5102 44.3035C47.5095 43.7014 47.27 43.1241 46.8442 42.6984C46.4185 42.2726 45.8412 42.0331 45.2391 42.0325ZM45.2391 44.84C45.133 44.84 45.0292 44.8085 44.941 44.7495C44.8527 44.6905 44.7839 44.6067 44.7433 44.5087C44.7027 44.4106 44.6921 44.3027 44.7128 44.1986C44.7335 44.0945 44.7847 43.9989 44.8597 43.9238C44.9348 43.8488 45.0304 43.7977 45.1345 43.777C45.2386 43.7563 45.3465 43.7669 45.4446 43.8076C45.5427 43.8482 45.6265 43.917 45.6854 44.0053C45.7444 44.0936 45.7758 44.1973 45.7758 44.3035C45.7756 44.4457 45.719 44.5821 45.6184 44.6827C45.5178 44.7833 45.3814 44.8399 45.2391 44.84Z" fill="#F1D231"/>
<path d="M16.0067 64.6055H16.704C16.934 64.6055 17.1546 64.5141 17.3172 64.3515C17.4799 64.1888 17.5712 63.9683 17.5712 63.7383C17.5712 63.5083 17.4799 63.2877 17.3172 63.1251C17.1546 62.9625 16.934 62.8711 16.704 62.8711H16.0067C15.7767 62.8711 15.5561 62.9625 15.3935 63.1251C15.2309 63.2877 15.1395 63.5083 15.1395 63.7383C15.1395 63.9683 15.2309 64.1888 15.3935 64.3515C15.5561 64.5141 15.7767 64.6055 16.0067 64.6055V64.6055Z" fill="#F1D231"/>
<path d="M20.0372 64.6055H29.5341C29.7641 64.6055 29.9847 64.5141 30.1473 64.3515C30.3099 64.1888 30.4013 63.9683 30.4013 63.7383C30.4013 63.5083 30.3099 63.2877 30.1473 63.1251C29.9847 62.9625 29.7641 62.8711 29.5341 62.8711H20.0372C19.8072 62.8711 19.5867 62.9625 19.424 63.1251C19.2614 63.2877 19.17 63.5083 19.17 63.7383C19.17 63.9683 19.2614 64.1888 19.424 64.3515C19.5867 64.5141 19.8072 64.6055 20.0372 64.6055V64.6055Z" fill="#F1D231"/>
<path d="M8.05054 38.7006C7.97282 39.6284 8.10793 40.5617 8.44556 41.4295C8.78319 42.2972 9.31444 43.0764 9.99882 43.7077C9.78758 44.297 9.68095 44.9187 9.68374 45.5447V54.4883H8.53877C8.30322 54.4976 8.08036 54.5975 7.91669 54.7672C7.75301 54.9368 7.66117 55.1631 7.66031 55.3988V59.9429C7.66144 60.178 7.75355 60.4035 7.91732 60.5722C8.08109 60.7409 8.30381 60.8396 8.53877 60.8477H11.1291V71.6875C11.1329 71.9193 11.2278 72.1403 11.3933 72.3026C11.5588 72.4649 11.7816 72.5554 12.0134 72.5547H62.7756C62.8869 72.5537 62.9969 72.5302 63.0989 72.4856C63.201 72.4411 63.293 72.3763 63.3694 72.2954C63.4458 72.2144 63.5051 72.1188 63.5437 72.0143C63.5823 71.9099 63.5993 71.7987 63.5939 71.6875V60.8477H66.2502C66.7291 60.8477 67.0627 60.4217 67.0627 59.9429V55.3988C67.0627 54.92 66.7291 54.4883 66.2502 54.4883H58.6401C58.8005 54.1992 58.8244 53.7708 58.8244 53.3504V52.2512C58.8244 51.8542 58.6798 51.5202 58.2462 51.4174V38.6043C58.2464 38.2769 58.1815 37.9526 58.0553 37.6505C57.929 37.3484 57.744 37.0744 57.5109 36.8444C57.2778 36.6144 57.0013 36.4331 56.6975 36.3109C56.3937 36.1888 56.0686 36.1282 55.7412 36.1328H34.7375C34.41 36.1281 34.0848 36.1886 33.7808 36.3107C33.4769 36.4328 33.2002 36.6141 32.967 36.8441C32.7337 37.074 32.5485 37.3481 32.4221 37.6503C32.2957 37.9524 32.2306 38.2767 32.2306 38.6043V40.155C32.0861 40.1498 32.0247 40.1793 31.9271 40.1793H29.132C28.914 40.1758 28.7008 40.1141 28.5146 40.0006C28.3284 39.8871 28.1759 39.7258 28.073 39.5335C29.8934 39.1198 31.5327 38.1324 32.7496 36.7168C33.9665 35.3011 34.6965 33.5321 34.8322 31.6703L35.3408 24.6734C35.3422 24.6524 35.3431 24.6293 35.3431 24.6083C35.341 24.2437 35.2496 23.8851 35.077 23.564C34.9043 23.2428 34.6556 22.9689 34.3526 22.766C34.24 22.6964 34.1459 22.6006 34.0784 22.4868C34.0109 22.3729 33.972 22.2444 33.965 22.1123V19.1089C33.9662 18.0613 33.6004 17.0464 32.9311 16.2404C32.2618 15.4345 31.3313 14.8885 30.3013 14.6974C30.1139 13.5422 29.5223 12.4912 28.632 11.7317C27.7417 10.9722 26.6105 10.5537 25.4403 10.5508H21.5602C20.4526 10.554 19.3565 10.7754 18.3345 11.2023C17.3124 11.6292 16.3846 12.2533 15.6038 13.0389C14.823 13.8245 14.2047 14.7562 13.7841 15.7808C13.3635 16.8054 13.1489 17.9029 13.1525 19.0105V19.4585C12.7189 20.0367 11.5212 21.5378 10.6945 23.153C9.90597 24.6933 9.74908 26.4803 10.2571 28.1345L10.2614 28.1661C10.5405 29.088 10.5476 30.0709 10.2818 30.9968L10.0806 31.6972C10.0307 31.5975 10.0051 31.4874 10.0059 31.3759C10.0061 31.1767 9.93777 30.9835 9.81233 30.8288C9.68689 30.674 9.51201 30.5672 9.31709 30.5262C9.12216 30.4853 8.91907 30.5127 8.74196 30.6038C8.56485 30.6949 8.4245 30.8443 8.34452 31.0267L7.22411 33.5726C6.89137 34.3236 6.7975 35.1587 6.9552 35.9649C7.11289 36.771 7.51455 37.5092 8.10575 38.0795L8.05054 38.7006ZM9.76685 39.049C10.461 39.2542 11.1977 39.2689 11.8995 39.0916C12.6013 38.9143 13.2425 38.5514 13.7559 38.0411C14.8818 36.9204 15.64 35.4838 15.9298 33.9219C16.6722 35.2714 16.961 36.8238 16.7536 38.3499L16.1999 40.1797H15.0687C14.2672 40.1766 13.4752 40.3529 12.7506 40.6955C12.026 41.0381 11.3872 41.5384 10.8809 42.1598C10.1209 41.3061 9.72168 40.191 9.76714 39.049H9.76685ZM18.3767 35.5836C18.595 35.7616 18.83 35.9182 19.0783 36.0512V38.9395C19.077 39.2331 18.969 39.5163 18.7745 39.7363C18.58 39.9563 18.3122 40.0981 18.0209 40.1353L18.4353 38.7754C18.4478 38.7333 18.4571 38.6903 18.4632 38.6468C18.6123 37.6284 18.583 36.5919 18.3767 35.5836V35.5836ZM32.2306 48.0577V50.6367C32.2306 50.4796 32.1122 50.3235 32.0459 50.1701C31.954 49.9588 31.782 49.7926 31.5677 49.7079C31.3534 49.6232 31.1142 49.627 30.9027 49.7185C30.7987 49.7611 30.7042 49.8241 30.6249 49.9038C30.5456 49.9835 30.483 50.0782 30.4408 50.1824C30.3986 50.2866 30.3776 50.3982 30.3791 50.5106C30.3806 50.623 30.4046 50.734 30.4496 50.837C30.9505 51.9958 30.9882 53.3025 30.5549 54.4883H16.441C16.0084 53.3023 16.0466 51.9956 16.548 50.837C16.6357 50.6266 16.6372 50.3902 16.5522 50.1788C16.4672 49.9673 16.3024 49.7977 16.0935 49.7067C15.8845 49.6156 15.6482 49.6103 15.4354 49.692C15.2226 49.7737 15.0504 49.9358 14.9561 50.1432C14.3636 51.514 14.2477 53.0438 14.6267 54.4883H11.4181V45.5447C11.4177 45.0661 11.512 44.5922 11.6956 44.1502C11.8792 43.7083 12.1484 43.307 12.4877 42.9695C12.827 42.632 13.2298 42.365 13.6727 42.1839C14.1157 42.0028 14.5901 41.9111 15.0687 41.9141H17.4442C18.5724 43.2148 22.9806 47.7458 32.2306 48.0577ZM61.8595 70.8203H12.8634V60.8477H61.8595V70.8203ZM33.965 38.6043C33.9649 38.5044 33.9851 38.4056 34.0243 38.3138C34.0635 38.222 34.121 38.1391 34.1933 38.0702C34.2655 38.0012 34.351 37.9477 34.4445 37.9128C34.5381 37.8779 34.6378 37.8624 34.7375 37.8672H55.7412C55.8409 37.8623 55.9405 37.8778 56.034 37.9127C56.1274 37.9476 56.2128 38.0012 56.2849 38.0702C56.357 38.1391 56.4143 38.222 56.4534 38.3139C56.4924 38.4057 56.5123 38.5045 56.5119 38.6043V51.4531H33.965V38.6043ZM33.3869 53.1875H57.09V53.3504C57.09 53.9599 56.696 54.4883 56.1044 54.4883H34.3742C33.7827 54.4883 33.3869 53.9599 33.3869 53.3504V53.1875ZM65.3283 56.2227V59.1133H9.39468V56.2227H65.3283ZM29.132 41.9141H31.9271C32.0278 41.9016 32.1291 41.8947 32.2306 41.8933V46.3223C27.3166 46.141 23.9559 44.6593 21.9465 43.4087C21.0334 42.8457 20.1843 42.1852 19.414 41.4387C19.8409 41.1759 20.1935 40.8083 20.4382 40.3709C20.683 39.9335 20.8119 39.4407 20.8127 38.9395V36.8459C22.5484 37.4236 24.4246 37.4236 26.1603 36.8459L26.1843 38.94C26.1946 40.5534 27.5167 41.9141 29.132 41.9141ZM33.0844 31.5367C32.9849 32.9894 32.4297 34.3737 31.498 35.4927C30.5663 36.6117 29.3053 37.4083 27.8947 37.7692V36.0525C29.1405 35.311 30.179 34.267 30.9139 33.0173C31.6487 31.7676 32.0561 30.3525 32.0984 28.9034C32.3831 28.8948 32.6641 28.8369 32.929 28.7321C33.0639 28.6782 33.1935 28.6119 33.3162 28.5342L33.0844 31.5367ZM32.0861 27.1662V25.9172C32.1392 25.9049 32.1943 25.9037 32.2478 25.9136C32.3014 25.9236 32.3524 25.9445 32.3976 25.975C32.4973 26.0407 32.577 26.1326 32.6278 26.2407C32.6786 26.3488 32.6985 26.4689 32.6854 26.5876C32.6722 26.7063 32.6266 26.8191 32.5534 26.9135C32.4802 27.0078 32.3824 27.0802 32.2707 27.1224C32.2153 27.1562 32.1507 27.1715 32.0861 27.1662V27.1662ZM32.2306 19.1089V22.1123C32.2371 22.5281 32.3453 22.9359 32.5458 23.3002C32.7464 23.6645 33.0331 23.9742 33.3809 24.202C33.4446 24.2441 33.4977 24.3004 33.536 24.3664C33.5742 24.4324 33.5967 24.5064 33.6015 24.5826L33.5959 24.7004C33.533 24.6464 33.4674 24.5956 33.3994 24.5482C33.2116 24.4187 33.0039 24.3207 32.7845 24.2581C32.5239 23.8889 32.2856 23.5043 32.0711 23.1065C32.0414 23.0208 31.9983 22.9404 31.9436 22.8682C31.0463 21.1011 30.5763 19.1481 30.5714 17.1663C30.5715 17.1325 30.5695 17.0987 30.5656 17.0651L30.4944 16.554C31.0074 16.7554 31.4477 17.1071 31.7575 17.563C32.0674 18.0189 32.2323 18.5577 32.2306 19.1089V19.1089ZM28.9613 19.1252C29.1668 20.6932 29.6369 22.2148 30.3517 23.6254V28.6574C30.3553 30.4343 29.6707 32.1436 28.4413 33.4267C27.212 34.7098 25.5335 35.467 23.758 35.5393C21.9825 35.6117 20.248 34.9936 18.9183 33.8148C17.5886 32.636 16.7671 30.9881 16.6262 29.2167C16.6726 29.0882 16.7249 28.9602 16.777 28.8331L16.881 28.5845C17.2326 27.7292 17.6912 26.9218 18.2459 26.1818C18.3779 26.2394 18.5221 26.2633 18.6656 26.2512C18.8091 26.2391 18.9474 26.1914 19.0678 26.1126C19.1883 26.0337 19.2872 25.926 19.3557 25.7993C19.4242 25.6727 19.46 25.5309 19.46 25.3869C19.46 25.2621 19.5096 25.1424 19.5978 25.0542C19.6861 24.9659 19.8058 24.9163 19.9306 24.9163C20.0554 24.9163 20.1751 24.9659 20.2633 25.0542C20.3516 25.1424 20.4012 25.2621 20.4012 25.3869C20.4012 25.6169 20.4925 25.8375 20.6552 26.0001C20.8178 26.1627 21.0384 26.2541 21.2684 26.2541C21.4984 26.2541 21.7189 26.1627 21.8816 26.0001C22.0442 25.8375 22.1355 25.6169 22.1355 25.3869C22.1352 25.0142 22.0403 24.6476 21.8597 24.3215C21.6791 23.9954 21.4187 23.7205 21.1029 23.5225C22.185 22.8276 23.3813 22.329 24.6367 22.0498C26.3964 21.6574 27.9418 20.6123 28.9613 19.1252V19.1252ZM12.2275 23.9488C13.1717 22.1042 14.6481 20.3412 14.6628 20.3236C14.7998 20.1694 14.879 19.9725 14.8869 19.7665V19.0105C14.883 18.1306 15.0526 17.2586 15.3859 16.4442C15.7193 15.6299 16.2099 14.8893 16.8296 14.2647C17.4494 13.6401 18.1862 13.1438 18.9979 12.8041C19.8096 12.4645 20.6803 12.2881 21.5602 12.2852H25.4403C26.2533 12.2926 27.0338 12.6063 27.6258 13.1636C28.2178 13.721 28.578 14.4811 28.6344 15.2923C27.5242 17.1303 25.7059 18.2109 23.6072 18.2109H21.9451C20.5006 18.2025 19.0688 18.481 17.7327 19.0303C16.3967 19.5795 15.183 20.3885 14.162 21.4104C12.913 22.6495 12.0542 24.2272 11.6916 25.9487C11.7251 25.2514 11.9078 24.5694 12.2275 23.9488V23.9488ZM8.81164 34.2708L9.22948 33.3212C9.60355 33.6075 10.0518 33.7807 10.5212 33.8203C10.5382 33.8223 10.5551 33.8242 10.572 33.8252C11.1374 33.8604 11.6974 33.6981 12.1562 33.3661L12.243 33.3279C12.5627 33.1022 12.8247 32.8044 13.0078 32.4585C13.191 32.1127 13.29 31.7285 13.297 31.3373V27.826C13.2883 26.8632 13.4718 25.9084 13.8368 25.0174C14.2017 24.1265 14.7408 23.3173 15.4225 22.6374C16.276 21.7774 17.2925 21.0964 18.4125 20.6342C19.5324 20.1719 20.7333 19.9377 21.9449 19.9453H23.607C24.542 19.9413 25.4682 19.7655 26.3397 19.4267C25.7215 19.8854 25.0126 20.2068 24.2603 20.3695C22.2642 20.8124 20.4048 21.7315 18.8407 23.0485C17.2767 24.3655 16.0544 26.0412 15.2781 27.9328L15.1769 28.1785C14.7969 29.1063 14.5424 30.0808 14.4203 31.076C14.4146 31.1076 14.4107 31.1395 14.4086 31.1716C14.3583 31.6017 14.3326 32.0342 14.3317 32.4672C14.3339 33.275 14.1759 34.0752 13.8667 34.8215C13.5576 35.5678 13.1035 36.2454 12.5307 36.815C12.1527 37.193 11.6545 37.4269 11.1223 37.4764C10.59 37.5259 10.0572 37.3878 9.61606 37.0859C9.17488 36.7841 8.85306 36.3376 8.70627 35.8236C8.55948 35.3097 8.59696 34.7605 8.81222 34.2713L8.81164 34.2708Z" fill="#F1D231"/>
<path d="M24.8605 25.3872C24.8605 25.6172 24.9519 25.8378 25.1145 26.0004C25.2771 26.163 25.4977 26.2544 25.7277 26.2544C25.9577 26.2544 26.1783 26.163 26.3409 26.0004C26.5035 25.8378 26.5949 25.6172 26.5949 25.3872C26.5949 25.2624 26.6445 25.1427 26.7327 25.0544C26.821 24.9662 26.9407 24.9166 27.0655 24.9166C27.1903 24.9166 27.31 24.9662 27.3982 25.0544C27.4865 25.1427 27.5361 25.2624 27.5361 25.3872C27.5361 25.6172 27.6274 25.8378 27.7901 26.0004C27.9527 26.163 28.1733 26.2544 28.4033 26.2544C28.6332 26.2544 28.8538 26.163 29.0164 26.0004C29.1791 25.8378 29.2704 25.6172 29.2704 25.3872C29.2704 24.8024 29.0381 24.2416 28.6246 23.8281C28.2111 23.4145 27.6503 23.1822 27.0655 23.1822C26.4807 23.1822 25.9198 23.4145 25.5063 23.8281C25.0928 24.2416 24.8605 24.8024 24.8605 25.3872Z" fill="#F1D231"/>
<path d="M25.1149 29.7856C24.9025 29.998 24.6504 30.1664 24.373 30.2814C24.0955 30.3963 23.7982 30.4555 23.4978 30.4555C23.1975 30.4555 22.9001 30.3963 22.6227 30.2814C22.3452 30.1664 22.0932 29.998 21.8808 29.7856C21.7182 29.6229 21.4976 29.5315 21.2676 29.5315C21.0376 29.5315 20.817 29.6229 20.6544 29.7855C20.4918 29.9481 20.4004 30.1687 20.4004 30.3987C20.4004 30.6287 20.4917 30.8493 20.6543 31.0119C21.0277 31.3854 21.471 31.6816 21.9589 31.8837C22.4468 32.0858 22.9697 32.1899 23.4978 32.1899C24.0259 32.1899 24.5488 32.0858 25.0367 31.8837C25.5245 31.6816 25.9678 31.3854 26.3412 31.0119C26.5016 30.8488 26.5911 30.629 26.5902 30.4002C26.5893 30.1714 26.498 29.9523 26.3362 29.7905C26.1745 29.6288 25.9553 29.5375 25.7266 29.5366C25.4978 29.5356 25.2779 29.6251 25.1149 29.7856V29.7856Z" fill="#F1D231"/>
</svg>
