<svg width="74" height="75" viewBox="0 0 74 75" fill="none" xmlns="http://www.w3.org/2000/svg">
<path d="M36.9998 37.3806C34.024 37.3806 31.1151 38.263 28.6409 39.9162C26.1666 41.5695 24.2382 43.9193 23.0994 46.6685C21.9606 49.4178 21.6627 52.443 22.2432 55.3615C22.8237 58.2801 24.2567 60.961 26.3609 63.0652C28.4651 65.1694 31.146 66.6023 34.0645 67.1829C36.9831 67.7634 40.0083 67.4655 42.7575 66.3267C45.5068 65.1879 47.8566 63.2595 49.5099 60.7852C51.1631 58.311 52.0455 55.402 52.0455 52.4263C52.0412 48.4372 50.4546 44.6128 47.634 41.7921C44.8133 38.9714 40.9888 37.3849 36.9998 37.3806ZM49.5625 53.2566H50.2822C50.0964 56.1887 48.9425 58.9761 47.0014 61.1815L46.4972 60.6864C46.3333 60.526 46.1125 60.4368 45.8832 60.4384C45.6538 60.44 45.4343 60.5321 45.2725 60.6947C45.1107 60.8574 45.0198 61.0774 45.0195 61.3068C45.0191 61.5362 45.1095 61.7564 45.2708 61.9195L45.7749 62.4254C43.5744 64.3638 40.7934 65.518 37.867 65.7072V64.9882C37.867 64.7582 37.7756 64.5376 37.613 64.375C37.4504 64.2124 37.2298 64.121 36.9998 64.121C36.7698 64.121 36.5492 64.2124 36.3866 64.375C36.224 64.5376 36.1326 64.7582 36.1326 64.9882V65.7072C33.2067 65.5182 30.426 64.3644 28.2258 62.4264L28.7299 61.9223C28.8925 61.7596 28.9839 61.539 28.9838 61.309C28.9838 61.079 28.8924 60.8585 28.7298 60.6958C28.5672 60.5332 28.3466 60.4419 28.1166 60.4419C27.8866 60.4419 27.666 60.5333 27.5034 60.6959L26.9994 61.1818C25.0581 58.9764 23.904 56.1888 23.7183 53.2566H24.4372C24.6671 53.2566 24.8877 53.1652 25.0503 53.0026C25.213 52.84 25.3043 52.6194 25.3043 52.3894C25.3043 52.1594 25.213 51.9388 25.0503 51.7762C24.8877 51.6136 24.6671 51.5222 24.4372 51.5222H23.7183C23.9042 48.6009 25.0587 45.825 26.9991 43.6334L27.5032 44.1465C27.5832 44.227 27.6783 44.291 27.783 44.3348C27.8878 44.3785 28.0001 44.4012 28.1136 44.4016C28.2271 44.402 28.3395 44.38 28.4445 44.3369C28.5495 44.2938 28.645 44.2304 28.7255 44.1504C28.8061 44.0704 28.87 43.9753 28.9138 43.8706C28.9576 43.7659 28.9803 43.6536 28.9806 43.5401C28.981 43.4266 28.959 43.3141 28.9159 43.2091C28.8728 43.1041 28.8094 43.0086 28.7294 42.9281L28.2255 42.4245C30.4257 40.4865 33.2066 39.3327 36.1326 39.1438V39.8629C36.1326 40.0929 36.224 40.3134 36.3866 40.4761C36.5492 40.6387 36.7698 40.7301 36.9998 40.7301C37.2298 40.7301 37.4504 40.6387 37.613 40.4761C37.7756 40.3134 37.867 40.0929 37.867 39.8629V39.1438C40.793 39.3328 43.5737 40.4867 45.774 42.4247L45.2699 42.9287C45.1883 43.009 45.1234 43.1046 45.0789 43.2101C45.0344 43.3156 45.0113 43.4288 45.0108 43.5433C45.0103 43.6578 45.0325 43.7712 45.0761 43.877C45.1197 43.9829 45.1838 44.0791 45.2647 44.16C45.3457 44.241 45.4418 44.3051 45.5477 44.3487C45.6535 44.3923 45.7669 44.4145 45.8814 44.4141C45.9959 44.4136 46.1091 44.3905 46.2146 44.3461C46.3201 44.3017 46.4158 44.2368 46.4961 44.1552L47.0002 43.6328C48.9411 45.8245 50.096 48.6006 50.2822 51.5222H49.5625C49.3325 51.5222 49.1119 51.6136 48.9493 51.7762C48.7866 51.9388 48.6953 52.1594 48.6953 52.3894C48.6953 52.6194 48.7866 52.84 48.9493 53.0026C49.1119 53.1652 49.3325 53.2566 49.5625 53.2566Z" fill="#F1D231"/>
<path d="M37.8672 51.9092V48.3333C37.8672 48.1033 37.7758 47.8827 37.6132 47.7201C37.4506 47.5574 37.23 47.4661 37 47.4661C36.77 47.4661 36.5494 47.5574 36.3868 47.7201C36.2242 47.8827 36.1328 48.1033 36.1328 48.3333V52.2515C36.1327 52.4715 36.2163 52.6834 36.3665 52.8441L39.8309 56.5499C39.988 56.7179 40.2054 56.8166 40.4352 56.8243C40.6651 56.8321 40.8886 56.7482 41.0566 56.5911C41.2246 56.4341 41.3234 56.2167 41.3311 55.9868C41.3388 55.757 41.2549 55.5334 41.0979 55.3654L37.8672 51.9092Z" fill="#F1D231"/>
<path d="M30.7598 46.1856C29.9382 46.9989 29.2866 47.9674 28.8429 49.0349C28.3992 50.1023 28.1723 51.2474 28.1753 52.4034C28.1788 54.7404 29.1101 56.9805 30.7646 58.6311C32.4191 60.2817 34.6613 61.2078 36.9984 61.2058H37.0208C38.4697 61.2032 39.8956 60.8432 41.1721 60.1578C42.4486 59.4724 43.5364 58.4827 44.3389 57.2763C45.1415 56.07 45.634 54.6843 45.773 53.2421C45.912 51.7999 45.693 50.3456 45.1355 49.0083C44.5781 47.6709 43.6993 46.4917 42.5771 45.5752C41.455 44.6586 40.124 44.0331 38.7023 43.7539C37.2805 43.4747 35.8118 43.5506 34.4264 43.9748C33.041 44.399 31.7816 45.1584 30.7598 46.1856ZM42.0117 57.419C40.6854 58.7369 38.8905 59.4749 37.0208 59.4714H36.9998C35.366 59.4636 33.7854 58.8897 32.5271 57.8475C31.2689 56.8052 30.4109 55.359 30.0992 53.7552C29.7874 52.1513 30.0413 50.489 30.8176 49.0514C31.5939 47.6137 32.8445 46.4895 34.3565 45.8704C35.8685 45.2512 37.5483 45.1754 39.11 45.6557C40.6716 46.136 42.0185 47.1428 42.9212 48.5046C43.824 49.8664 44.2267 51.4991 44.0609 53.1245C43.895 54.7499 43.1709 56.2676 42.0117 57.419Z" fill="#F1D231"/>
<path d="M68.483 48.198H67.6126C66.7126 41.4416 63.6062 35.1716 58.7761 30.3623C53.946 25.5531 47.6626 22.4738 40.9024 21.6029V17.6632C41.8398 17.0378 42.6065 16.1886 43.1332 15.1924C43.6599 14.1962 43.93 13.0844 43.9189 11.9576C43.9231 11.0461 43.7471 10.1427 43.4012 9.29927C43.0552 8.45589 42.546 7.68916 41.9029 7.0431C41.2598 6.39704 40.4954 5.88439 39.6536 5.53458C38.8118 5.18477 37.9092 5.0047 36.9977 5.0047C36.0861 5.0047 35.1835 5.18477 34.3417 5.53458C33.4999 5.88439 32.7355 6.39704 32.0924 7.0431C31.4493 7.68916 30.9401 8.45589 30.5942 9.29927C30.2482 10.1427 30.0723 11.0461 30.0764 11.9576C30.0662 13.0848 30.3372 14.1968 30.8647 15.1929C31.3922 16.1891 32.1597 17.0381 33.0977 17.6632V21.6028C26.3376 22.4738 20.0545 25.5532 15.2245 30.3625C10.3946 35.1718 7.28829 41.4417 6.38832 48.198H5.51709C4.44379 48.198 3.41445 48.6244 2.65552 49.3833C1.89658 50.1422 1.47021 51.1716 1.47021 52.2449C1.47021 53.3182 1.89658 54.3475 2.65552 55.1064C3.41445 55.8654 4.44379 56.2917 5.51709 56.2917H19.5678C20.4478 60.2614 22.6537 63.813 25.822 66.3613C28.9904 68.9097 32.9323 70.3028 36.9983 70.3113H37.0459C41.1045 70.2925 45.0362 68.8947 48.1958 66.3473C51.3555 63.7998 53.5554 60.254 54.4346 56.2917H68.483C69.5563 56.2917 70.5856 55.8654 71.3446 55.1064C72.1035 54.3475 72.5299 53.3182 72.5299 52.2449C72.5299 51.1716 72.1035 50.1422 71.3446 49.3833C70.5856 48.6244 69.5563 48.198 68.483 48.198ZM31.7969 11.9576C31.7967 10.9283 32.1018 9.92213 32.6735 9.06622C33.2452 8.21031 34.0579 7.54317 35.0088 7.14916C35.9597 6.75515 37.0061 6.65197 38.0156 6.85267C39.0252 7.05337 39.9525 7.54893 40.6804 8.27669C41.4083 9.00445 41.904 9.93171 42.1048 10.9412C42.3057 11.9507 42.2027 12.9971 41.8089 13.9481C41.415 14.899 40.748 15.7118 39.8922 16.2837C39.0364 16.8555 38.0302 17.1608 37.0009 17.1608C35.6213 17.1592 34.2987 16.6106 33.3231 15.6352C32.3475 14.6597 31.7987 13.3372 31.7969 11.9576ZM39.168 18.534V21.4288C38.4454 21.3767 37.739 21.3499 37 21.3499C36.2611 21.3499 35.5547 21.3767 34.8321 21.4288V18.534C36.2371 19.0165 37.763 19.0165 39.168 18.534ZM19.2763 54.5574H5.51695C4.90363 54.5574 4.31544 54.3137 3.88176 53.88C3.44808 53.4464 3.20445 52.8582 3.20445 52.2449C3.20445 51.6315 3.44808 51.0434 3.88176 50.6097C4.31544 50.176 4.90363 49.9324 5.51695 49.9324H19.3239C19.1104 51.4657 19.0946 53.02 19.2769 54.5574H19.2763ZM48.3936 63.8218C45.3831 66.8327 41.3029 68.5291 37.0451 68.5402C37.03 68.5402 37.0162 68.5402 37 68.5402C33.2716 68.5402 29.6585 67.2473 26.7764 64.882C23.8943 62.5166 21.9216 59.2251 21.1944 55.5683C20.4671 51.9114 21.0304 48.1156 22.7881 44.8275C24.5459 41.5394 27.3894 38.9625 30.8341 37.5359C34.2789 36.1094 38.1117 35.9214 41.6795 37.0041C45.2473 38.0867 48.3293 40.373 50.4004 43.4733C52.4715 46.5736 53.4034 50.2961 53.0375 54.0066C52.6716 57.717 51.0304 61.1858 48.3936 63.8218ZM54.346 48.198C53.5746 45.0195 51.9396 42.1161 49.6215 39.8085C42.6621 32.8489 31.3383 32.8444 24.3786 39.8039C22.0588 42.1123 20.4231 45.0175 19.6524 48.198H8.13874C9.11276 41.2363 12.5703 34.8613 17.8741 30.2478C23.1779 25.6344 29.9705 23.0936 37 23.0936C44.0295 23.0936 50.8222 25.6344 56.126 30.2478C61.4298 34.8613 64.8873 41.2363 65.8613 48.198H54.346ZM68.483 54.5574H54.7248C54.9064 53.0199 54.8898 51.4656 54.6756 49.9324H68.483C69.0963 49.9324 69.6845 50.176 70.1182 50.6097C70.5519 51.0434 70.7955 51.6315 70.7955 52.2449C70.7955 52.8582 70.5519 53.4464 70.1182 53.88C69.6845 54.3137 69.0963 54.5574 68.483 54.5574Z" fill="#F1D231"/>
<path d="M17.565 32.9011C14.6052 35.881 12.3662 39.4983 11.0193 43.4764C10.9826 43.5844 10.9675 43.6986 10.975 43.8124C10.9825 43.9263 11.0124 44.0375 11.063 44.1398C11.1136 44.2421 11.1838 44.3334 11.2697 44.4085C11.3557 44.4835 11.4556 44.5409 11.5637 44.5773C11.6718 44.6137 11.7861 44.6284 11.8999 44.6206C12.0138 44.6127 12.1249 44.5825 12.227 44.5316C12.3292 44.4808 12.4202 44.4102 12.4951 44.3241C12.5699 44.2379 12.627 44.1379 12.663 44.0296C13.9248 40.3034 16.0221 36.9153 18.7946 34.1243C18.8749 34.0436 18.9386 33.9478 18.9819 33.8425C19.0252 33.7371 19.0473 33.6243 19.047 33.5104C19.0467 33.3965 19.024 33.2838 18.9801 33.1787C18.9362 33.0736 18.8721 32.9782 18.7914 32.8979C18.7106 32.8176 18.6149 32.7539 18.5095 32.7106C18.4042 32.6673 18.2914 32.6452 18.1775 32.6455C18.0636 32.6458 17.9509 32.6685 17.8458 32.7124C17.7407 32.7563 17.6453 32.8204 17.565 32.9011Z" fill="#F1D231"/>
<path d="M21.342 29.729C21.0376 29.9412 20.7335 30.1626 20.4383 30.3868C20.3469 30.4554 20.27 30.5414 20.2119 30.6399C20.1539 30.7383 20.1159 30.8473 20.1001 30.9604C20.0843 31.0736 20.0911 31.1888 20.1199 31.2994C20.1488 31.41 20.1993 31.5137 20.2684 31.6047C20.3375 31.6957 20.424 31.7722 20.5227 31.8297C20.6215 31.8872 20.7306 31.9246 20.8439 31.9397C20.9572 31.9549 21.0723 31.9475 21.1827 31.918C21.2931 31.8886 21.3966 31.8375 21.4873 31.7679C21.7637 31.5579 22.0486 31.3507 22.3336 31.1519C22.4276 31.087 22.5078 31.0042 22.5697 30.9083C22.6316 30.8123 22.6739 30.705 22.6942 30.5927C22.7145 30.4803 22.7125 30.365 22.6881 30.2535C22.6638 30.1419 22.6176 30.0362 22.5523 29.9425C22.487 29.8488 22.4039 29.769 22.3077 29.7075C22.2114 29.646 22.104 29.6042 21.9915 29.5844C21.8791 29.5645 21.7638 29.5671 21.6523 29.5919C21.5409 29.6167 21.4354 29.6633 21.342 29.729Z" fill="#F1D231"/>
</svg>
